# xmcd
#
# Track frame offsets:
#	150
#	15937
#	30512
#	45690
#	60250
#	71240
#	87447
#	99507
#	108545
#	121720
#	139292
#	151612
#	163147
#	176007
#	189850
#
# Disc length: 2689 seconds
#
# Revision: 0
# Processed by: cddbd v1.5.2PL0 Copyright (c) Steve Scherf et al.
# Submitted via: dBpowerAMP V4.0
#
DISCID=b80a7f0f
DTITLE=Bill Barwick - Sometime
DYEAR=1999
DGENRE=Country
TTITLE0=Sometimes This Ol' Cowboy Gets The Blues
TTITLE1=You Don't Need That Cowgirl
TTITLE2=Colorado Cowboy
TTITLE3=Wanderin' Star
TTITLE4=Some Of These Days
TTITLE5=You Just Can't See Him From The Road
TTITLE6=God Must Be A Cowboy
TTITLE7=Don't Pet The Dog
TTITLE8=That's The Way It Happens
TTITLE9=Cool Water
TTITLE10=Tumbling Tumbleweeds
TTITLE11=Blue Shadows On The Trail
TTITLE12=Sixteen Tons
TTITLE13=Wayward Wind
TTITLE14=Scotch and Soda
EXTD=
EXTT0=
EXTT1=
EXTT2=
EXTT3=
EXTT4=
EXTT5=
EXTT6=
EXTT7=
EXTT8=
EXTT9=
EXTT10=
EXTT11=
EXTT12=
EXTT13=
EXTT14=
PLAYORDER=
